<svg id="Layer_1" data-name="Layer 1" xmlns="http://www.w3.org/2000/svg" viewBox="0 0 806.82 105.48"><defs><style>.cls-1{fill:#fae809;}.cls-1,.cls-2,.cls-3{stroke:#eee;stroke-miterlimit:10;}.cls-2{fill:#fa9e09;}.cls-3{fill:#eee;}.cls-4{font-size:40px;}.cls-4,.cls-5{fill:#999;}.cls-4,.cls-5,.cls-8{font-family:ProximaNova-Bold, Proxima Nova;font-weight:700;}.cls-5,.cls-8{font-size:24.4px;}.cls-6{letter-spacing:-0.01em;}.cls-7{letter-spacing:0em;}.cls-8{fill:#d8d8d8;}</style></defs><title>progress-bar</title><polygon class="cls-1" points="191.11 0.5 259.64 52.18 191.11 104.98 351.76 104.98 424.78 52.18 361.87 0.5 191.11 0.5"/><polygon class="cls-2" points="381.72 0.5 450.25 52.18 381.72 104.98 542.37 104.98 615.39 52.18 552.48 0.5 381.72 0.5"/><polygon class="cls-3" points="572.33 0.5 640.86 52.18 572.33 104.98 732.98 104.98 806 52.18 743.09 0.5 572.33 0.5"/><polygon class="cls-2" points="0.5 0.5 0.5 104.98 161.15 104.98 234.17 52.18 171.26 0.5 0.5 0.5"/><text class="cls-4" transform="translate(43.79 63.79)">READ</text><text class="cls-5" transform="translate(271.77 46.47)">Approved<tspan x="0" y="26.14">by </tspan><tspan class="cls-6" x="33.06" y="26.14">S</tspan><tspan class="cls-7" x="47.36" y="26.14">tate</tspan></text><text class="cls-5" transform="translate(452.77 46.47)">Introduced<tspan x="0" y="26.14">to Assembly</tspan></text><text class="cls-8" transform="translate(638.77 46.47)">Approved<tspan x="0" y="26.14">by Assembly</tspan></text></svg>